# xmcd
#
# Track frame offsets:
#	150
#	15842
#	30335
#	49235
#	60562
#	72352
#	85065
#	95120
#	110265
#	123582
#	137632
#	152360
#	163300
#	177275
#	190670
#
# Disc length: 2752 seconds
#
# Revision: 2
# Processed by: cddbd v1.5.1PL2 Copyright (c) Steve Scherf et al.
# Submitted via: audiograbber 1.83.01
#
DISCID=bc0abe0f
DTITLE=George Jones - Thmp 028
DYEAR=1900
DGENRE=
TTITLE0=George Jones - Choices
TTITLE1=George Jones - A Good Year for the Roses
TTITLE2=George Jones - Bartender Blues
TTITLE3=George Jones - High Tech Redneck
TTITLE4=George Jones - Honky Tonk Myself to Death
TTITLE5=George Jones - I Don't Need Your Rockin' Chair
TTITLE6=George Jones - Love Bug
TTITLE7=George Jones - She Loved A Lot in Her Time
TTITLE8=George Jones - Take Me
TTITLE9=George Jones - The Grand Tour
TTITLE10=George Jones - The Right Left Hand
TTITLE11=George Jones - Walk Through This World With Me
TTITLE12=George Jones - When the Grass Grows Over Me
TTITLE13=George Jones - Writing On The Wall
TTITLE14=George Jones - Wine Colored Roses
EXTD=
EXTT0=
EXTT1=
EXTT2=
EXTT3=
EXTT4=
EXTT5=
EXTT6=
EXTT7=
EXTT8=
EXTT9=
EXTT10=
EXTT11=
EXTT12=
EXTT13=
EXTT14=
PLAYORDER=
